<?xml version="1.0" encoding="UTF-8" standalone="no"?>
<svg
   width="70"
   height="70"
   version="1.1"
   id="svg7"
   sodipodi:docname="icon.svg"
   xml:space="preserve"
   inkscape:version="1.3 (0e150ed, 2023-07-21)"
   xmlns:inkscape="http://www.inkscape.org/namespaces/inkscape"
   xmlns:sodipodi="http://sodipodi.sourceforge.net/DTD/sodipodi-0.dtd"
   xmlns="http://www.w3.org/2000/svg"
   xmlns:svg="http://www.w3.org/2000/svg"><sodipodi:namedview
     id="namedview7"
     pagecolor="#ffffff"
     bordercolor="#666666"
     borderopacity="1.0"
     inkscape:showpageshadow="2"
     inkscape:pageopacity="0.0"
     inkscape:pagecheckerboard="0"
     inkscape:deskcolor="#d1d1d1"
     inkscape:zoom="6.7428571"
     inkscape:cx="10.084746"
     inkscape:cy="10.529661"
     inkscape:window-width="1920"
     inkscape:window-height="1027"
     inkscape:window-x="0"
     inkscape:window-y="25"
     inkscape:window-maximized="1"
     inkscape:current-layer="svg7" /><defs
     id="defs2"><path
       id="a"
       d="M4 0h61c4 0 5 1 5 5v60c0 4-1 5-5 5H4c-3 0-4-1-4-5V5c0-4 1-5 4-5z" /><linearGradient
       id="c"
       x1="100%"
       x2="0%"
       y1="0%"
       y2="100%"><stop
         offset="0%"
         stop-color="#94B6C8"
         id="stop1" /><stop
         offset="100%"
         stop-color="#6A9EBA"
         id="stop2" /></linearGradient><path
       id="d"
       d="M19.25 46h2.714v1.212c0 .188.152.343.339.343h26.394a.342.342 0 0 0 .339-.343V37.5H32.5c.333-3.333-.165-5.5-1.494-6.5h18.03v-3.212a.342.342 0 0 0-.339-.343H29.765c.361-1.01.57-1.924.627-2.742h18.644c1.5 0 2.714 1.228 2.714 2.742v20.11c0 1.514-1.213 2.742-2.714 2.742H21.964c-1.5 0-2.714-1.228-2.714-2.742V46zm-3.79 9.642h-1.037V55h2.833v.642h-1.037v2.832h-.76v-2.832zM17.422 55h1.07l.809 2.389h.01L20.075 55h1.07v3.474h-.711v-2.462h-.01l-.847 2.462h-.586l-.848-2.438h-.01v2.438h-.711V55zm5.66-27.992c4.256 1.523 6.896 3.327 6.896 7.649 0 2.612-.901 4.633-2.64 6.001-1.553 1.244-3.852 1.897-6.616 1.897-3.48 0-6.834-1.057-8.635-2.084l.932-5.814c2.112 1.244 5.342 2.207 7.299 2.207 1.584 0 2.454-.59 2.454-1.616 0-1.058-.901-1.742-3.603-2.706-4.193-1.523-6.771-3.327-6.771-7.556 0-2.332.838-4.26 2.453-5.597 1.553-1.275 3.728-1.959 6.337-1.959 3.696 0 6.367 1.027 7.671 1.649l-.931 5.752c-1.647-.808-4.038-1.71-6.368-1.71-1.273 0-1.988.497-1.988 1.368 0 1.026 1.243 1.68 3.51 2.519z" /><path
       id="e"
       d="M19.25 44h2.714v1.212c0 .188.152.343.339.343h26.394a.342.342 0 0 0 .339-.343V35.5H32.5c.333-3.333-.165-5.5-1.494-6.5h18.03v-3.212a.342.342 0 0 0-.339-.343H29.765c.361-1.01.57-1.924.627-2.742h18.644c1.5 0 2.714 1.228 2.714 2.742v20.11c0 1.514-1.213 2.742-2.714 2.742H21.964c-1.5 0-2.714-1.228-2.714-2.742V44zm-3.79 9.642h-1.037V53h2.833v.642h-1.037v2.832h-.76v-2.832zM17.422 53h1.07l.809 2.389h.01L20.075 53h1.07v3.474h-.711v-2.462h-.01l-.847 2.462h-.586l-.848-2.438h-.01v2.438h-.711V53zm5.66-27.992c4.256 1.523 6.896 3.327 6.896 7.649 0 2.612-.901 4.633-2.64 6.001-1.553 1.244-3.852 1.897-6.616 1.897-3.48 0-6.834-1.057-8.635-2.084l.932-5.814c2.112 1.244 5.342 2.207 7.299 2.207 1.584 0 2.454-.59 2.454-1.616 0-1.058-.901-1.742-3.603-2.706-4.193-1.523-6.771-3.327-6.771-7.556 0-2.332.838-4.26 2.453-5.597 1.553-1.275 3.728-1.959 6.337-1.959 3.696 0 6.367 1.027 7.671 1.649l-.931 5.752c-1.647-.808-4.038-1.71-6.368-1.71-1.273 0-1.988.497-1.988 1.368 0 1.026 1.243 1.68 3.51 2.519z" /></defs><path
     fill="url(#c)"
     d="M0 0H70V70H0z"
     id="path2" /><path
     fill="#FFF"
     fill-opacity=".383"
     d="M4 1h61c2.667 0 4.333.667 5 2V0H0v3c.667-1.333 2-2 4-2z"
     id="path3" /><path
     fill="#393939"
     d="M 4,69 C 2,69 0,68 0,65 V 33.916 L 14,17.5 27.818,22.703 H 37.25 L 48,23 51.576,24.968 51.34,46.978 39.224,69 Z"
     opacity="0.324"
     id="path4"
     style="display:inline" /><path
     fill="#000000"
     fill-opacity="0.383"
     d="m 4,69 h 61 c 2.667,0 4.333,-1 5,-3 v 4 H 0 v -4 c 0.667,2 2,3 4,3 z"
     id="path5"
     style="display:inline" /><path
     id="path1-8"
     style="stroke-width:0.0674656;fill:#ffffff;fill-opacity:1"
     d="M 19.888672 19.888672 C 17.507133 19.888672 15.570312 21.823539 15.570312 24.205078 L 15.570312 28.226562 C 16.16155 28.790376 16.844819 29.313239 17.623047 29.792969 C 19.072006 30.58331 20.564787 30.978516 22.101562 30.978516 L 22.365234 30.978516 C 24.9558 30.978516 27.282108 29.880941 29.433594 27.685547 C 29.521409 27.685547 30.750144 28.958188 33.208984 31.460938 C 32.74283 31.95992 32.263018 32.417428 31.771484 32.841797 L 51.191406 32.841797 L 51.191406 45.794922 C 51.191406 46.388618 50.705026 46.873047 50.111328 46.873047 L 19.888672 46.873047 C 19.294969 46.873047 18.808594 46.388618 18.808594 45.794922 L 18.808594 36.072266 C 17.693551 35.804927 16.614606 35.402573 15.570312 34.865234 L 15.570312 45.794922 C 15.570312 48.176453 17.507133 50.111328 19.888672 50.111328 L 50.111328 50.111328 C 52.49286 50.111328 54.429688 48.176452 54.429688 45.794922 L 54.429688 24.205078 C 54.429688 21.82354 52.49286 19.888672 50.111328 19.888672 L 19.888672 19.888672 z M 19.888672 23.126953 L 50.111328 23.126953 C 50.705026 23.126953 51.191406 23.611374 51.191406 24.205078 L 51.191406 26.365234 L 18.808594 26.365234 L 18.808594 24.205078 C 18.808594 23.611375 19.294969 23.126953 19.888672 23.126953 z M 23.666016 40.396484 C 22.76872 40.396484 22.046875 41.118337 22.046875 42.015625 C 22.046875 42.91292 22.768721 43.634766 23.666016 43.634766 L 26.904297 43.634766 C 27.801592 43.634766 28.523438 42.912921 28.523438 42.015625 C 28.523438 41.118337 27.801592 40.396484 26.904297 40.396484 L 23.666016 40.396484 z M 32.300781 40.396484 C 31.403486 40.396484 30.681641 41.118337 30.681641 42.015625 C 30.681641 42.91292 31.403487 43.634766 32.300781 43.634766 L 39.857422 43.634766 C 40.75471 43.634766 41.476562 42.912921 41.476562 42.015625 C 41.476562 41.118337 40.75471 40.396484 39.857422 40.396484 L 32.300781 40.396484 z " /><path
     d="m 21.981507,9.2288137 c -2.299602,0 -4.558138,0.5338361 -6.693483,1.6425723 -4.886652,3.079823 -7.309448,7.186254 -7.309448,12.278229 0,3.777916 1.478317,7.14519 4.434946,10.142885 2.833438,2.504923 5.99539,3.777917 9.485857,3.777917 3.942173,0 7.391576,-1.560444 10.307142,-4.681332 -2.299601,-2.340666 -3.449403,-3.53153 -3.531531,-3.53153 -2.012151,2.053215 -4.18856,3.079823 -6.611355,3.079823 H 21.81725 c -1.437251,0 -2.833438,-0.36958 -4.18856,-1.108737 -2.997695,-1.847894 -4.517074,-4.352816 -4.517074,-7.596897 v -0.246386 c 0,-0.821286 0.164257,-1.765766 0.451708,-2.792374 1.806829,-3.942174 4.599202,-5.872196 8.336055,-5.872196 2.504923,0 4.722396,0.985543 6.693483,3.038759 h 0.08213 c 2.340665,-2.258537 3.53153,-3.449402 3.53153,-3.490467 C 29.290955,10.789257 25.923681,9.2288137 21.981507,9.2288137 Z"
     id="text14-0"
     style="-inkscape-font-specification:'BARTKEY Bold';fill:#ffffff;fill-opacity:1;stroke-width:0.256652"
     aria-label="C" /></svg>
